<svg xmlns="http://www.w3.org/2000/svg" viewBox="0 0 1600 1100" role="img" aria-labelledby="title desc">
  <title id="title">AI in QA Masterclass certificate</title>
  <desc id="desc">Certificate for Rafal Ciesielski for completing AI in QA Masterclass.</desc>
  <defs>
    <linearGradient id="bg" x1="90" y1="80" x2="1490" y2="1020" gradientUnits="userSpaceOnUse">
      <stop offset="0" stop-color="#030812" />
      <stop offset="0.52" stop-color="#071522" />
      <stop offset="1" stop-color="#073746" />
    </linearGradient>
    <linearGradient id="accent" x1="110" y1="330" x2="820" y2="620" gradientUnits="userSpaceOnUse">
      <stop offset="0" stop-color="#f59e0b" />
      <stop offset="0.48" stop-color="#8ee7b4" />
      <stop offset="1" stop-color="#22d3ee" />
    </linearGradient>
    <linearGradient id="line" x1="0" y1="0" x2="1" y2="0">
      <stop offset="0" stop-color="#f59e0b" />
      <stop offset="1" stop-color="#22d3ee" />
    </linearGradient>
    <filter id="glow" x="-20%" y="-20%" width="140%" height="140%">
      <feGaussianBlur stdDeviation="8" result="blur" />
      <feMerge>
        <feMergeNode in="blur" />
        <feMergeNode in="SourceGraphic" />
      </feMerge>
    </filter>
  </defs>
  <rect width="1600" height="1100" fill="#020617" />
  <rect x="32" y="34" width="1536" height="1032" rx="20" fill="url(#bg)" stroke="rgba(148,163,184,0.38)" stroke-width="1.4" />
  <g opacity="0.24" fill="none" stroke="#22d3ee" stroke-width="1">
    <circle cx="1300" cy="520" r="140" />
    <circle cx="1300" cy="520" r="170" />
    <circle cx="1300" cy="520" r="200" />
    <circle cx="1300" cy="520" r="230" />
    <circle cx="1300" cy="520" r="260" />
    <circle cx="1300" cy="520" r="290" />
    <circle cx="1300" cy="520" r="320" />
    <circle cx="1300" cy="520" r="350" />
  </g>
  <g transform="translate(1260 0)">
    <path d="M0 0h210v420l-105-48-105 48z" fill="rgba(2,6,23,0.68)" stroke="url(#line)" stroke-width="7" />
    <circle cx="105" cy="252" r="110" fill="#081323" stroke="url(#line)" stroke-width="7" />
    <text x="105" y="292" text-anchor="middle" fill="url(#accent)" font-family="Inter, Arial, sans-serif" font-size="92" font-weight="900">RC</text>
  </g>
  <text x="104" y="124" fill="#f8fafc" font-family="Inter, Arial, sans-serif" font-size="25" font-weight="900" letter-spacing="3">RAFAL CIESIELSKI</text>
  <text x="104" y="270" fill="#f8fafc" font-family="Inter, Arial, sans-serif" font-size="78" font-weight="900" letter-spacing="8">CERTYFIKAT</text>
  <text x="106" y="320" fill="#5eead4" font-family="Inter, Arial, sans-serif" font-size="32" font-weight="800" letter-spacing="14">UCZESTNICTWA</text>
  <rect x="106" y="372" width="112" height="5" fill="url(#line)" />
  <text x="106" y="430" fill="#cbd5e1" font-family="Inter, Arial, sans-serif" font-size="28">Z przyjemnością potwierdzam, że</text>
  <text x="106" y="548" fill="url(#accent)" font-family="Inter, Arial, sans-serif" font-size="76" font-weight="900">Rafał Ciesielski</text>
  <rect x="106" y="584" width="770" height="2" fill="url(#line)" opacity="0.8" />
  <text x="106" y="648" fill="#cbd5e1" font-family="Inter, Arial, sans-serif" font-size="28">wziął udział w szkoleniu</text>
  <text x="106" y="702" fill="#f8fafc" font-family="Inter, Arial, sans-serif" font-size="36" font-weight="800">AI in QA Masterclass - 2 dni</text>
  <g transform="translate(106 760)">
    <text x="620" y="0" fill="#22d3ee" font-family="Inter, Arial, sans-serif" font-size="17" font-weight="800" letter-spacing="8" text-anchor="middle">KLUCZOWE OBSZARY SZKOLENIA</text>
    <line x1="0" y1="-6" x2="520" y2="-6" stroke="#94a3b8" opacity="0.42" />
    <line x1="720" y1="-6" x2="1320" y2="-6" stroke="#94a3b8" opacity="0.42" />
    <g font-family="Inter, Arial, sans-serif" font-size="16" fill="#cbd5e1" letter-spacing="2">
      <text x="0" y="66" font-weight="900" fill="#f8fafc">AI W QA</text>
      <text x="0" y="94">PRAKTYCZNA WIEDZA</text>
      <text x="280" y="66" font-weight="900" fill="#f8fafc">AGENTY AI</text>
      <text x="280" y="94">BUDOWA I PRACA</text>
      <text x="520" y="66" font-weight="900" fill="#f8fafc">MCP I PIPELINE</text>
      <text x="520" y="94">SERWER I AUTOMATYZACJA</text>
      <text x="790" y="66" font-weight="900" fill="#f8fafc">BEZPIECZEŃSTWO</text>
      <text x="790" y="94">SENTINEL, VAULT, KONTROLA</text>
      <text x="1080" y="66" font-weight="900" fill="#f8fafc">ROADMAP 90 DNI</text>
      <text x="1080" y="94">WDROŻENIE W PRAKTYCE</text>
    </g>
  </g>
  <g transform="translate(106 970)" font-family="Inter, Arial, sans-serif">
    <text x="0" y="0" fill="#f8fafc" font-size="28" font-style="italic">Patryk Raba</text>
    <rect x="0" y="22" width="360" height="2" fill="url(#line)" />
    <text x="0" y="58" fill="#f8fafc" font-size="19" font-weight="900" letter-spacing="5">PATRYK RABA</text>
    <text x="0" y="86" fill="#8ee7b4" font-size="17" letter-spacing="3">PROWADZĄCY</text>
    <text x="590" y="58" fill="#f8fafc" font-size="18" letter-spacing="5">7-8 MAJA 2026</text>
    <text x="590" y="86" fill="#22d3ee" font-size="17" letter-spacing="3">DATA</text>
  </g>
</svg>
